<svg width="105" height="48" viewBox="0 0 105 48" fill="none" xmlns="http://www.w3.org/2000/svg">
<path d="M42.8848 47.0341C34.9656 47.0341 28.5459 41.6435 28.5459 34.9938C28.5459 28.3441 34.9656 22.9534 42.8848 22.9534C44.0844 18.2844 49.6143 8.94632 62.1366 8.94632C74.6588 8.94632 81.3312 16.7174 83.1593 21.2813C90.9588 19.914 99.427 22.7834 102.925 30.6285C106.435 38.5006 96.7555 45.643 89.5575 47.1301L42.8848 47.0341Z" fill="white"/>
<path fill-rule="evenodd" clip-rule="evenodd" d="M48.9492 14.7149C45.9733 17.5183 44.3539 20.8926 43.7823 23.1172L43.6256 23.7272H42.8849C35.4698 23.7272 29.4642 28.774 29.4642 34.9938C29.4642 41.2135 35.4698 46.2603 42.8849 46.2603H42.8872L89.4459 46.3561C92.8228 45.633 96.8168 43.584 99.5476 40.7825C102.295 37.9645 103.67 34.4974 102.066 30.9007C99.831 25.8888 95.5037 23.0477 90.6968 22.0936C85.8647 21.1346 80.4976 22.074 76.2201 24.7278L75.1315 23.4816C79.823 20.5709 85.7384 19.5196 91.1178 20.5873C96.5223 21.6599 101.335 24.8629 103.785 30.3563C105.691 34.6317 103.982 38.6718 100.967 41.7648C97.9644 44.8447 93.5751 47.0968 89.7763 47.8816L89.6675 47.9041L42.8849 47.8079H42.8827C34.4607 47.8069 27.6279 42.0728 27.6279 34.9938C27.6279 28.1195 34.0711 22.5135 42.156 22.194C42.8983 19.7801 44.6134 16.4783 47.5806 13.6831C50.8201 10.6314 55.5694 8.17255 62.1367 8.17255C75.1571 8.17255 81.726 15.927 83.3956 19.8627L81.6665 20.3837C80.1751 16.8681 74.1608 9.72009 62.1367 9.72009C56.1818 9.72009 51.9051 11.9303 48.9492 14.7149Z" fill="black"/>
<path d="M41.0578 28.1404C45.0756 28.1404 49.3401 30.4476 49.3401 34.5193C49.3401 37.8038 45.2871 42.7169 28.0174 42.7169C14.2017 42.7169 8.93508 42.6451 7.45482 40.9259C6.99665 41.2516 6.0379 41.2778 5.35238 40.5103C4.83178 39.9274 4.67054 39.1796 4.95249 38.5915C3.90691 36.8181 0.667969 28.9493 0.667969 25.1273C0.667969 20.3499 4.75629 14.4053 6.09557 12.6138C7.43484 10.8223 6.64326 10.0745 7.06619 8.41867C8.01778 5.10706 12.8991 -0.167886 15.823 0.647595C18.6994 1.44987 21.7087 2.48897 23.5767 3.35759C25.4446 4.22621 26.1645 5.46661 25.3468 6.59582C24.5291 7.72502 23.6551 8.43316 22.4333 8.5146C23.7139 8.66841 25.1942 10.3431 24.3168 11.7995C23.2902 13.5034 21.2505 12.9938 20.8981 12.6138C20.7444 12.4481 20.4399 15.0297 18.2196 14.4053C16.4432 13.9059 16.7206 13.3115 15.823 12.6138C14.0842 14.2153 10.6068 18.6399 10.6068 23.5258C10.6068 28.4118 13.3794 32.0039 14.7656 33.1892C15.7055 32.3206 20.0593 29.35 24.3168 29.35C28.5743 29.35 32.0588 32.3206 33.9737 33.1892C33.9737 30.8277 37.0399 28.1404 41.0578 28.1404Z" fill="#FFE5D6"/>
<path fill-rule="evenodd" clip-rule="evenodd" d="M13.02 0.565201C13.9731 0.099684 15.0367 -0.1644 16.0325 0.113336C18.9293 0.921264 21.9812 1.97302 23.899 2.86486C24.9078 3.33396 25.6823 3.93693 26.0733 4.64021C26.479 5.36988 26.4429 6.1621 25.9166 6.88894C25.3933 7.61158 24.8011 8.23552 24.0592 8.63176C24.3357 8.85287 24.5762 9.11267 24.7638 9.38929C25.2657 10.1293 25.4771 11.1161 24.912 12.0542C24.2877 13.0905 23.3062 13.499 22.3986 13.5496C21.9618 13.574 21.5529 13.5156 21.2188 13.4185C21.2187 13.4185 21.2185 13.4184 21.2184 13.4184C21.1399 13.586 21.0398 13.7754 20.9125 13.962C20.6934 14.2832 20.3627 14.6431 19.863 14.8639C19.339 15.0954 18.7127 15.1373 18.008 14.9391C17.0148 14.6599 16.5173 14.3268 16.157 13.9211C16.0584 13.8102 15.955 13.6729 15.8706 13.561C15.8508 13.5347 15.832 13.5098 15.8146 13.487C14.0476 15.3317 11.2743 19.2654 11.2743 23.5258C11.2743 27.7517 13.4289 30.9645 14.7991 32.3758C15.4905 31.8497 16.6099 31.1192 17.9614 30.4573C19.7445 29.584 22.0181 28.7872 24.3166 28.7872C26.6271 28.7872 28.6897 29.592 30.3732 30.4645C31.2113 30.8987 31.9725 31.3591 32.6293 31.7564L32.6447 31.7657C32.9347 31.941 33.199 32.1006 33.4405 32.2411C33.7371 31.1853 34.5048 30.1668 35.5609 29.3618C36.9419 28.3093 38.8694 27.5776 41.0575 27.5776C45.3153 27.5776 50.0077 30.0384 50.0077 34.5193C50.0077 36.3785 48.8512 38.6 45.5037 40.3295C42.1832 42.0451 36.7116 43.2796 28.0172 43.2796C21.1213 43.2796 16.317 43.2621 13.0532 43.0268C11.4213 42.9091 10.1339 42.7346 9.14491 42.4668C8.38874 42.262 7.76992 41.9929 7.30369 41.6265C6.52164 41.8413 5.51428 41.6275 4.81866 40.8487C4.25014 40.2122 3.99953 39.3776 4.23455 38.6304C3.65797 37.5755 2.65685 35.2804 1.77784 32.7879C0.837472 30.1215 0 27.1285 0 25.1273C0 22.6223 1.06562 19.8567 2.26688 17.5266C3.47411 15.1849 4.84935 13.2248 5.53037 12.3138C6.13086 11.5106 6.23776 10.9752 6.25685 10.4482C6.26162 10.3166 6.25951 10.1725 6.25722 10.0163C6.25036 9.54761 6.24192 8.97069 6.41317 8.30024C6.41395 8.2972 6.41475 8.29417 6.41559 8.29114C6.41604 8.28949 6.4165 8.28785 6.41698 8.28621C6.92543 6.51676 8.45048 4.29058 10.2037 2.61346C11.084 1.77138 12.0525 1.03776 13.02 0.565201ZM21.4429 12.8916C21.4491 12.8795 21.4487 12.8827 21.441 12.8955C21.4416 12.8941 21.4423 12.8928 21.4429 12.8916ZM7.71698 8.54408C7.58165 9.07751 7.58745 9.47006 7.59383 9.90225C7.59652 10.0842 7.59931 10.2731 7.59172 10.4825C7.56605 11.1912 7.39911 11.9255 6.66032 12.9138C6.00206 13.7943 4.66351 15.7023 3.49176 17.9751C2.31403 20.2596 1.33549 22.8549 1.33549 25.1273C1.33549 26.9481 2.11749 29.8005 3.05799 32.4673C3.99543 35.1254 5.05359 37.4987 5.55027 38.3411C5.63524 38.4852 5.64293 38.6531 5.57139 38.8023C5.39371 39.1729 5.47726 39.7146 5.88566 40.1718C6.37032 40.7145 6.8953 40.5873 7.02404 40.4958C7.16587 40.3949 7.3511 40.3484 7.5353 40.3673C7.71951 40.3862 7.88607 40.4688 7.99505 40.5954C8.25028 40.8918 8.7087 41.1665 9.5534 41.3952C10.3999 41.6244 11.5702 41.7902 13.167 41.9054C16.3605 42.1357 21.0974 42.1541 28.0172 42.1541C36.5924 42.1541 41.7822 40.9321 44.8057 39.37C47.8021 37.8218 48.6722 35.9445 48.6722 34.5193C48.6722 30.8569 44.8354 28.7031 41.0575 28.7031C39.2278 28.7031 37.6133 29.3151 36.4567 30.1966C35.2896 31.0861 34.6412 32.2063 34.6412 33.1892C34.6412 33.3873 34.5177 33.5707 34.3159 33.6723C34.1142 33.7739 33.8639 33.7786 33.657 33.6847C33.1381 33.4494 32.5302 33.0817 31.8899 32.6945L31.8644 32.6791C31.2002 32.2774 30.4711 31.8364 29.6737 31.4232C28.072 30.5932 26.2635 29.9127 24.3166 29.9127C22.3575 29.9127 20.3255 30.6012 18.6324 31.4304C16.9413 32.2586 15.6746 33.1841 15.2588 33.5684C15.1353 33.6825 14.9616 33.7488 14.7784 33.7518C14.5951 33.7548 14.4185 33.6942 14.2898 33.5842C12.7985 32.3091 9.93885 28.58 9.93885 23.5258C9.93885 18.4446 13.5318 13.8903 15.3301 12.2339C15.4499 12.1235 15.617 12.0579 15.7944 12.0516C15.9718 12.0452 16.1449 12.0987 16.2754 12.2001C16.5508 12.4141 16.735 12.6203 16.8816 12.8055C16.9497 12.8916 16.9994 12.9582 17.0429 13.0165C17.105 13.0997 17.1543 13.1658 17.2261 13.2467C17.3956 13.4375 17.6475 13.6513 18.4307 13.8715C18.8362 13.9855 19.0806 13.9388 19.2429 13.8671C19.4296 13.7846 19.601 13.6265 19.7547 13.4011C19.9067 13.1783 20.0115 12.935 20.095 12.7294C20.1003 12.7163 20.1059 12.7024 20.1117 12.6881C20.1439 12.6081 20.1819 12.5137 20.2165 12.446C20.217 12.4451 20.2175 12.4441 20.2182 12.4428C20.2323 12.4149 20.2858 12.3093 20.3897 12.2198C20.4454 12.1719 20.6129 12.0437 20.8821 12.0434C21.1762 12.0431 21.3544 12.1922 21.424 12.2673C21.4192 12.262 21.4167 12.2595 21.4171 12.2591C21.419 12.2575 21.4837 12.305 21.6539 12.3545C21.8335 12.4066 22.0647 12.4403 22.3103 12.4266C22.7673 12.4011 23.3189 12.2124 23.7212 11.5447C24.0334 11.0264 23.9434 10.4477 23.6044 9.94781C23.2505 9.42613 22.7132 9.11666 22.3389 9.0717C22.0019 9.03122 21.755 8.78365 21.7657 8.49696C21.7764 8.21027 22.0412 7.97621 22.3805 7.95359C23.2705 7.89427 23.9893 7.3899 24.7766 6.30267C25.0679 5.9003 25.0808 5.50772 24.8639 5.11773C24.6325 4.70136 24.113 4.24981 23.2538 3.85029C21.4358 3.0049 18.4691 1.97845 15.6129 1.18183C15.1468 1.05182 14.5038 1.1413 13.6896 1.53897C12.8899 1.9296 12.0303 2.56878 11.2058 3.35746C9.55202 4.93944 8.16232 7.00268 7.71698 8.54408ZM17.8123 35.1916C18.1455 35.0583 18.5437 35.178 18.7018 35.4587C19.4861 36.8518 21.7383 37.8024 24.2995 37.8817C26.8324 37.9602 29.3636 37.1718 30.6371 35.4075C30.8288 35.142 31.2396 35.0577 31.5546 35.2192C31.8697 35.3807 31.9698 35.7269 31.7781 35.9924C30.1705 38.2196 27.0835 39.0943 24.2504 39.0065C21.4454 38.9195 18.5836 37.8743 17.4952 35.9412C17.3371 35.6604 17.4791 35.3248 17.8123 35.1916Z" fill="black"/>
</svg>
